<svg width="21" height="15" viewBox="0 0 21 15" fill="none" xmlns="http://www.w3.org/2000/svg">
<path fill-rule="evenodd" clip-rule="evenodd" d="M7.47716e-07 1.875C7.47716e-07 0.839 0.840001 0 1.875 0L19.125 0C20.16 0 21 0.84 21 1.875V4.901C21.0001 5.03273 20.9655 5.16217 20.8996 5.27627C20.8338 5.39038 20.7391 5.48513 20.625 5.551C20.2825 5.74821 19.998 6.03221 19.8002 6.37437C19.6024 6.71653 19.4982 7.10477 19.4982 7.5C19.4982 7.89523 19.6024 8.28347 19.8002 8.62564C19.998 8.9678 20.2825 9.25179 20.625 9.449C20.7391 9.51487 20.8338 9.60962 20.8996 9.72373C20.9655 9.83783 21.0001 9.96727 21 10.099V13.125C21 14.16 20.16 15 19.125 15L1.875 15C1.37772 15 0.900806 14.8025 0.549176 14.4508C0.197545 14.0992 7.47716e-07 13.6223 7.47716e-07 13.125L7.47716e-07 10.099C-0.000185104 9.96736 0.0342784 9.838 0.0999283 9.7239C0.165578 9.6098 0.260102 9.51499 0.374001 9.449C0.716507 9.25179 1.00099 8.9678 1.19881 8.62564C1.39662 8.28347 1.50077 7.89523 1.50077 7.5C1.50077 7.10477 1.39662 6.71653 1.19881 6.37437C1.00099 6.03221 0.716507 5.74821 0.374001 5.551C0.260102 5.48501 0.165578 5.3902 0.0999283 5.2761C0.0342784 5.162 -0.000185104 5.03264 7.47716e-07 4.901L7.47716e-07 1.875ZM15 0.75C15.1989 0.75 15.3897 0.829018 15.5303 0.96967C15.671 1.11032 15.75 1.30109 15.75 1.5V2.25C15.75 2.44891 15.671 2.63968 15.5303 2.78033C15.3897 2.92098 15.1989 3 15 3C14.8011 3 14.6103 2.92098 14.4697 2.78033C14.329 2.63968 14.25 2.44891 14.25 2.25V1.5C14.25 1.30109 14.329 1.11032 14.4697 0.96967C14.6103 0.829018 14.8011 0.75 15 0.75ZM15.75 5.25C15.75 5.05109 15.671 4.86032 15.5303 4.71967C15.3897 4.57902 15.1989 4.5 15 4.5C14.8011 4.5 14.6103 4.57902 14.4697 4.71967C14.329 4.86032 14.25 5.05109 14.25 5.25V6C14.25 6.19891 14.329 6.38968 14.4697 6.53033C14.6103 6.67098 14.8011 6.75 15 6.75C15.1989 6.75 15.3897 6.67098 15.5303 6.53033C15.671 6.38968 15.75 6.19891 15.75 6V5.25ZM15 8.25C15.1989 8.25 15.3897 8.32902 15.5303 8.46967C15.671 8.61032 15.75 8.80109 15.75 9V9.75C15.75 9.94891 15.671 10.1397 15.5303 10.2803C15.3897 10.421 15.1989 10.5 15 10.5C14.8011 10.5 14.6103 10.421 14.4697 10.2803C14.329 10.1397 14.25 9.94891 14.25 9.75V9C14.25 8.80109 14.329 8.61032 14.4697 8.46967C14.6103 8.32902 14.8011 8.25 15 8.25ZM15.75 12.75C15.75 12.5511 15.671 12.3603 15.5303 12.2197C15.3897 12.079 15.1989 12 15 12C14.8011 12 14.6103 12.079 14.4697 12.2197C14.329 12.3603 14.25 12.5511 14.25 12.75V13.5C14.25 13.6989 14.329 13.8897 14.4697 14.0303C14.6103 14.171 14.8011 14.25 15 14.25C15.1989 14.25 15.3897 14.171 15.5303 14.0303C15.671 13.8897 15.75 13.6989 15.75 13.5V12.75ZM4.5 7.5C4.5 7.30109 4.57902 7.11032 4.71967 6.96967C4.86032 6.82902 5.05109 6.75 5.25 6.75H10.5C10.6989 6.75 10.8897 6.82902 11.0303 6.96967C11.171 7.11032 11.25 7.30109 11.25 7.5C11.25 7.69891 11.171 7.88968 11.0303 8.03033C10.8897 8.17098 10.6989 8.25 10.5 8.25L5.25 8.25C5.05109 8.25 4.86032 8.17098 4.71967 8.03033C4.57902 7.88968 4.5 7.69891 4.5 7.5ZM5.25 9.75C5.05109 9.75 4.86032 9.82902 4.71967 9.96967C4.57902 10.1103 4.5 10.3011 4.5 10.5C4.5 10.6989 4.57902 10.8897 4.71967 11.0303C4.86032 11.171 5.05109 11.25 5.25 11.25L8.25 11.25C8.44891 11.25 8.63968 11.171 8.78033 11.0303C8.92098 10.8897 9 10.6989 9 10.5C9 10.3011 8.92098 10.1103 8.78033 9.96967C8.63968 9.82902 8.44891 9.75 8.25 9.75L5.25 9.75Z" fill="#E14658"/>
</svg>
