<svg width="20" height="20" viewBox="0 0 20 20" fill="none" xmlns="http://www.w3.org/2000/svg">
<path fill-rule="evenodd" clip-rule="evenodd" d="M4.75 0.25C4.94891 0.25 5.13968 0.329018 5.28033 0.46967C5.42098 0.610322 5.5 0.801088 5.5 1V2.5H14.5V1C14.5 0.801088 14.579 0.610322 14.7197 0.46967C14.8603 0.329018 15.0511 0.25 15.25 0.25C15.4489 0.25 15.6397 0.329018 15.7803 0.46967C15.921 0.610322 16 0.801088 16 1V2.5H16.75C17.5456 2.5 18.3087 2.81607 18.8713 3.37868C19.4339 3.94129 19.75 4.70435 19.75 5.5V16.75C19.75 17.5456 19.4339 18.3087 18.8713 18.8713C18.3087 19.4339 17.5456 19.75 16.75 19.75H3.25C2.45435 19.75 1.69129 19.4339 1.12868 18.8713C0.566071 18.3087 0.25 17.5456 0.25 16.75V5.5C0.25 4.70435 0.566071 3.94129 1.12868 3.37868C1.69129 2.81607 2.45435 2.5 3.25 2.5H4V1C4 0.801088 4.07902 0.610322 4.21967 0.46967C4.36032 0.329018 4.55109 0.25 4.75 0.25ZM18.25 9.25C18.25 8.85218 18.092 8.47064 17.8107 8.18934C17.5294 7.90804 17.1478 7.75 16.75 7.75H3.25C2.85218 7.75 2.47064 7.90804 2.18934 8.18934C1.90804 8.47064 1.75 8.85218 1.75 9.25V16.75C1.75 17.1478 1.90804 17.5294 2.18934 17.8107C2.47064 18.092 2.85218 18.25 3.25 18.25H16.75C17.1478 18.25 17.5294 18.092 17.8107 17.8107C18.092 17.5294 18.25 17.1478 18.25 16.75V9.25Z" fill="white"/>
</svg>
