<svg width="22" height="19" viewBox="0 0 22 19" fill="none" xmlns="http://www.w3.org/2000/svg">
<path d="M6.848 5.25L8.384 6.137M6.848 5.25C6.65245 5.59394 6.39081 5.8958 6.07812 6.1382C5.76544 6.38061 5.4079 6.55877 5.02608 6.66243C4.64426 6.76609 4.24571 6.79321 3.85337 6.74221C3.46103 6.69121 3.08265 6.56312 2.74002 6.36529C2.39739 6.16747 2.09727 5.90382 1.85694 5.58954C1.61662 5.27526 1.44083 4.91654 1.3397 4.53404C1.23858 4.15154 1.21411 3.75282 1.26771 3.36083C1.3213 2.96883 1.45191 2.59131 1.652 2.25C2.05265 1.56658 2.70736 1.06938 3.47325 0.866888C4.23913 0.6644 5.05402 0.773068 5.74008 1.16918C6.42615 1.56529 6.92768 2.21668 7.13525 2.98121C7.34281 3.74573 7.23955 4.56133 6.848 5.25ZM8.384 6.137C8.70799 6.32387 8.97805 6.59149 9.16785 6.91378C9.35764 7.23607 9.46071 7.60203 9.467 7.976C9.472 8.327 9.521 8.671 9.607 9M8.384 6.137L10.461 7.336M9.607 9C9.521 9.33 9.472 9.673 9.467 10.025C9.46054 10.3988 9.35739 10.7646 9.1676 11.0867C8.97781 11.4088 8.70785 11.6762 8.384 11.863M9.607 9C9.76707 8.38975 10.0585 7.82185 10.461 7.336M10.461 7.336C11.0005 6.6838 11.7195 6.20431 12.529 5.957L17.854 4.329C18.6602 4.0823 19.5195 4.06705 20.334 4.285L21.137 4.5L13.343 9M6.848 12.75L8.384 11.863M6.848 12.75C7.04809 13.0913 7.1787 13.4688 7.2323 13.8608C7.28589 14.2528 7.26142 14.6515 7.1603 15.034C7.05917 15.4165 6.88339 15.7753 6.64306 16.0895C6.40273 16.4038 6.10262 16.6675 5.75998 16.8653C5.41735 17.0631 5.03897 17.1912 4.64664 17.2422C4.2543 17.2932 3.85574 17.2661 3.47392 17.1624C3.09211 17.0588 2.73456 16.8806 2.42188 16.6382C2.1092 16.3958 1.84755 16.0939 1.652 15.75C1.26045 15.0613 1.15719 14.2457 1.36476 13.4812C1.57232 12.7167 2.07386 12.0653 2.75992 11.6692C3.44598 11.2731 4.26087 11.1644 5.02676 11.3669C5.79264 11.5694 6.44735 12.0666 6.848 12.75ZM8.384 11.863L10.461 10.664M10.461 10.664C11.0005 11.3162 11.7196 11.7956 12.529 12.043L17.855 13.672C18.6613 13.9184 19.5206 13.9333 20.335 13.715L21.137 13.5L13.343 9M10.461 10.664L13.343 9" stroke="#556987" stroke-width="1.5" stroke-linecap="round" stroke-linejoin="round"/>
</svg>
